# xmcd
#
# Track frame offsets:
#	150
#	36049
#	75743
#	90305
#	103382
#	127735
#	143861
#	165340
#	189560
#	207562
#	221797
#	232523
#	251980
#	267152
#	281136
#	299135
#	320493
#
# Disc length: 4552 seconds
#
# Revision: 1
# Processed by: cddbd v1.5.2PL0 Copyright (c) Steve Scherf et al.
# Submitted via: audiograbber 1.83.01
#
DISCID=0011c611
DTITLE=Various Artist - The Eighties Mix [CD-1)
DYEAR=1998
DGENRE=Pop
TTITLE0=Blondie - Call Me (12'' Mix)
TTITLE1=Soft Cell - Tainted Love-Where Did Our Love Go (12'' Mix)
TTITLE2=Orchestral Manoeuvres In The Dark - Enola Gay
TTITLE3=Joy Division - Love Will Tear Us Apart (12'' Mix)
TTITLE4=New Order - Blue Monday (Original 12'' Mix)
TTITLE5=Duran Duran - Planet Earth
TTITLE6=Bronski Beat - Smalltown Boy
TTITLE7=The Communards - Don't Leave Me This Way (12'' Mix)
TTITLE8=Japan - Quiet Life
TTITLE9=Eurythmics - Sweet Dreams (Are Made Of This)
TTITLE10=Yazoo - Don't Go
TTITLE11=Heaven 17 - Temptation
TTITLE12=Gary Numan - Cars
TTITLE13=Yello - The Race
TTITLE14=Tears For Fears - Everybody Wants To Rule The World
TTITLE15=M - Pop Musik
TTITLE16=Black - Wonderful Life
EXTD=
EXTT0=
EXTT1=
EXTT2=
EXTT3=
EXTT4=
EXTT5=
EXTT6=
EXTT7=
EXTT8=
EXTT9=
EXTT10=
EXTT11=
EXTT12=
EXTT13=
EXTT14=
EXTT15=
EXTT16=
PLAYORDER=
